<svg id="Capa_1" enable-background="new 0 0 511.831 511.831" height="512" viewBox="0 0 511.831 511.831" width="512" xmlns="http://www.w3.org/2000/svg"><g><path d="m478.824 260.092c-4.143 0-7.5 3.358-7.5 7.5v161.276c0 5.475-1.52 10.6-4.155 14.981l-102.01-78.98c-3.275-2.536-7.985-1.938-10.522 1.339-2.535 3.275-1.936 7.986 1.339 10.521l100.289 77.648c-4.18 2.319-8.984 3.644-14.093 3.644h-398.02c-4.846 0-9.416-1.195-13.441-3.297l164.503-127.364c14.83 8.25 31.386 12.39 47.948 12.39 16.801 0 33.597-4.257 48.588-12.746l38.243 29.609c1.366 1.058 2.982 1.57 4.587 1.57 2.24 0 4.457-1 5.936-2.909 2.535-3.275 1.936-7.986-1.339-10.521l-33.818-26.183 70.722-44.576c3.504-2.208 4.555-6.84 2.346-10.344-2.209-3.505-6.842-4.554-10.344-2.346l-80.395 50.673c-27.049 17.049-62.004 17.049-89.053 0l-183.358-115.573c1.941-14.206 14.146-25.189 28.876-25.189h216.68c4.143 0 7.5-3.358 7.5-7.5s-3.357-7.5-7.5-7.5h-216.681c-24.345 0-44.152 19.807-44.152 44.153v60.34c0 4.142 3.357 7.5 7.5 7.5s7.5-3.358 7.5-7.5v-46.748l166.572 104.991-162.057 125.471c-2.855-4.505-4.515-9.838-4.515-15.554v-136.198c0-4.142-3.357-7.5-7.5-7.5s-7.5 3.358-7.5 7.5v136.198c0 24.346 19.807 44.153 44.152 44.153h398.02c24.346 0 44.152-19.807 44.152-44.153v-161.276c0-4.142-3.357-7.5-7.5-7.5z"/><path d="m506.03 190.521-54.756-84.141c-2.26-3.473-6.906-4.455-10.377-2.195-3.472 2.259-4.455 6.905-2.195 10.377l54.756 84.141c4.137 6.357 4.448 14.132.833 20.799-3.616 6.667-10.303 10.646-17.887 10.646h-176.547c-7.584 0-14.27-3.98-17.886-10.646-3.615-6.667-3.305-14.442.832-20.799l88.273-135.644c3.825-5.878 10.041-9.249 17.055-9.249 7.013 0 13.228 3.371 17.053 9.249l16.084 24.714c2.26 3.472 6.905 4.453 10.377 2.195 3.472-2.259 4.454-6.905 2.195-10.377l-16.084-24.713c-6.547-10.061-17.621-16.067-29.625-16.068-.001 0 0 0-.001 0-12.003 0-23.079 6.007-29.626 16.067l-88.273 135.644c-7.187 11.043-7.727 24.55-1.445 36.132 6.281 11.581 17.896 18.495 31.071 18.495h176.547c13.176 0 24.791-6.914 31.072-18.496 6.281-11.581 5.741-25.088-1.446-36.131z"/><path d="m388.132 70.604c-2.537 0-4.902 1.283-6.286 3.409l-84.305 129.544c-1.501 2.306-1.618 5.248-.307 7.667 1.312 2.418 3.842 3.924 6.593 3.924h168.608c2.751 0 5.281-1.506 6.593-3.924s1.194-5.361-.307-7.667l-84.303-129.544c-1.384-2.126-3.749-3.409-6.286-3.409zm-70.476 129.544 70.476-108.294 70.475 108.294z"/><path d="m388.131 167.839c-4.143 0-7.5 3.358-7.5 7.5v9.265c0 4.142 3.357 7.5 7.5 7.5s7.5-3.358 7.5-7.5v-9.265c0-4.142-3.358-7.5-7.5-7.5z"/><path d="m380.631 126.122v23.097c0 4.142 3.357 7.5 7.5 7.5s7.5-3.358 7.5-7.5v-23.097c0-4.142-3.357-7.5-7.5-7.5s-7.5 3.358-7.5 7.5z"/></g></svg>